<svg xmlns="http://www.w3.org/2000/svg" width="48.379" height="51.83" viewBox="0 0 48.379 51.83"><g transform="translate(0)"><g transform="translate(0)"><path d="M63.545,285.662a4.079,4.079,0,0,0-3.926-.2l-8.844,4.293v-.466a3.932,3.932,0,0,0-3.96-4.009H38.249a17.794,17.794,0,0,1-5.2-.807l-5.58-1.739v-2.25a1.233,1.233,0,0,0-1.194-1.324H18.457a1.418,1.418,0,0,0-1.411,1.324v20.706a1.381,1.381,0,0,0,1.411,1.28H26.27a1.2,1.2,0,0,0,1.194-1.28V299.1l.932.694a13.518,13.518,0,0,0,8.411,2.932h7.527a13.27,13.27,0,0,0,7.517-2.309l11.83-8.069a3.993,3.993,0,0,0-.136-6.688Zm-38.685,14.2H19.65v-18.1h5.209ZM62.212,290.2l-11.83,8.063a10.676,10.676,0,0,1-6.049,1.856H36.807a10.905,10.905,0,0,1-6.778-2.357l-2.564-2.007v-10.3l4.81,1.5a20.387,20.387,0,0,0,5.975.924h8.566a1.328,1.328,0,0,1,1.355,1.4v1.574a22.5,22.5,0,0,1-8.921.587,1.277,1.277,0,0,0-1.466,1.079,1.312,1.312,0,0,0,1.092,1.493,21,21,0,0,0,3.324.255,26.439,26.439,0,0,0,7.793-1.2H50a1.3,1.3,0,0,0,.14-.058l.01,0L60.815,287.8a1.394,1.394,0,0,1,2.006,1.253A1.393,1.393,0,0,1,62.212,290.2Z" transform="translate(-17.046 -250.898)"/><path d="M20,17.11a3.912,3.912,0,0,0,3.839.2l8.758-4.292v.466a4.153,4.153,0,0,0,4.134,4.094h8.566a17.173,17.173,0,0,1,5.118.765l5.493,1.7v2.25a1.34,1.34,0,0,0,1.367,1.279h7.814a1.228,1.228,0,0,0,1.237-1.279V1.586A1.269,1.269,0,0,0,65.086.26H57.273a1.38,1.38,0,0,0-1.367,1.326V3.671l-.845-.717A13.3,13.3,0,0,0,46.736,0H39.209a13.292,13.292,0,0,0-7.517,2.332l-11.83,8.08A4,4,0,0,0,20,17.11ZM58.51,2.865h5.209v18.1H58.51Zm-37.179,9.7,11.83-8.086A10.7,10.7,0,0,1,39.21,2.6h7.527a10.687,10.687,0,0,1,6.692,2.38l2.477,2.029v10.3l-4.723-1.458a19.773,19.773,0,0,0-5.888-.882H36.728a1.546,1.546,0,0,1-1.529-1.49V11.912a23.215,23.215,0,0,1,9.008-.587,1.319,1.319,0,0,0,1.509-1.079,1.3,1.3,0,0,0-1.071-1.493,25.57,25.57,0,0,0-11.1.948h0l0,0a.652.652,0,0,0-.073.031c-.025.01-.05.019-.075.031L22.728,14.972a1.394,1.394,0,0,1-2.005-1.253A1.394,1.394,0,0,1,21.331,12.568Z" transform="translate(-18.009)"/><path d="M207.218,207.884a4.083,4.083,0,0,0-6.138,3.531c0,1.336.924,2.861,2.824,4.663a26.506,26.506,0,0,0,2.558,2.123,1.3,1.3,0,0,0,1.511,0,26.5,26.5,0,0,0,2.558-2.123c1.9-1.8,2.824-3.327,2.824-4.663a4.083,4.083,0,0,0-6.138-3.531Zm3.534,3.531c0,.829-1.738,2.678-3.534,4.1-1.8-1.417-3.533-3.265-3.533-4.1a1.482,1.482,0,0,1,1.48-1.481,1.465,1.465,0,0,1,1.092.482,1.3,1.3,0,0,0,1.921,0,1.465,1.465,0,0,1,1.092-.481A1.482,1.482,0,0,1,210.752,211.414Z" transform="translate(-182.45 -186.341)"/></g></g></svg>